Coordinates
version=1
nRows=17
nColumns=33
inDegrees=yes

Units are S.I. units (second, meters, Newtons, ...)
Angles are in degrees.

endheader
time	ground_thorax_rot_x	ground_thorax_rot_y	ground_thorax_rot_z	ground_thorax_tx	ground_thorax_ty	ground_thorax_tz	clav_prot_r	clav_elev_r	scapula_abduction_r	scapula_elevation_r	scapula_upward_rot_r	scapula_winging_r	shoulder_elv_r	plane_of_elev_r	axial_rot_r	elbow_flexion_r	pro_sup_r	wrist_flex_r	wrist_dev_r	clav_prot_l	clav_elev_l	scapula_abduction_l	scapula_elevation_l	scapula_upward_rot_l	scapula_winging_l	shoulder_elv_l	plane_of_elev_l	axial_rot_l	elbow_flexion_l	pro_sup_l	wrist_flex_l	wrist_dev_l	
7.9200	24.705063	30.604685	49.222913	47.550072	769.311706	-44.020001	13.009372	36.024161	25.889043	45.000000	-45.000000	-1883.341437	-2448.236273	20.487336	-157.320407	-359.027444	175.091258	12.848781	11.974097	-12.698793	-45.000000	-36.194442	45.000000	-45.000000	-2777.101539	75.905175	24.222986	21.438518	2151.092542	48.796330	10.627421	-16.028852	
7.9300	24.765650	30.529839	49.055577	45.744712	769.379514	-44.073698	12.998374	36.014697	25.844784	45.000000	-45.000000	-1883.422997	-2448.194659	20.485679	-157.179190	-359.026202	174.977843	12.838895	12.006042	-12.648685	-45.000000	-36.226247	45.000000	-45.000000	-2777.031370	75.935425	24.212371	21.332317	2151.079697	48.757883	10.639905	-16.039522	
7.9400	24.830422	30.452444	48.876755	43.916540	769.482130	-44.114029	12.987553	36.002723	25.795108	45.000000	-45.000000	-1883.495139	-2448.143811	20.486782	-157.046838	-359.026956	174.876381	12.829948	12.034602	-12.597729	-45.000000	-36.257337	45.000000	-45.000000	-2776.966425	75.969826	24.205051	21.238546	2151.068356	48.715263	10.678531	-16.045138	
7.9500	24.891171	30.379006	48.699298	42.065386	769.621820	-44.141172	12.979168	35.991624	25.756220	45.000000	-45.000000	-1883.582953	-2448.106179	20.492036	-156.938410	-359.023068	174.786997	12.822707	12.063525	-12.545940	-45.000000	-36.291167	45.000000	-45.000000	-2776.898355	76.002080	24.201720	21.156797	2151.050240	48.663985	10.690510	-16.060732	
7.9600	24.950451	30.304893	48.518975	40.191346	769.800940	-44.155436	12.972479	35.975665	25.714987	45.000000	-45.000000	-1883.663812	-2448.065359	20.493434	-156.843358	-359.026091	174.712419	12.818456	12.090830	-12.489427	-45.000000	-36.327873	45.000000	-45.000000	-2776.830396	76.037202	24.197324	21.091117	2151.038843	48.605782	10.725713	-16.072471	
7.9700	25.009295	30.231198	48.336045	38.294970	770.021835	-44.157259	12.968813	35.961127	25.679644	45.000000	-45.000000	-1883.756361	-2448.033092	20.501445	-156.774897	-359.031575	174.650783	12.817928	12.118438	-12.431285	-45.000000	-36.363921	45.000000	-45.000000	-2776.759175	76.071378	24.198646	21.042477	2151.022453	48.537878	10.746671	-16.092194	
7.9800	25.069718	30.154296	48.147443	36.377300	770.286698	-44.147187	12.967353	35.942486	25.641689	45.000000	-45.000000	-1883.841567	-2447.993152	20.508168	-156.724161	-359.047360	174.603487	12.821097	12.146010	-12.370210	-45.000000	-36.403424	45.000000	-45.000000	-2776.689067	76.107295	24.199572	21.011902	2151.010828	48.462441	10.791853	-16.106189	
7.9900	25.134476	30.074990	47.952746	34.440031	770.597471	-44.125876	12.967337	35.925793	25.609974	45.000000	-45.000000	-1883.937170	-2447.957740	20.526601	-156.696868	-359.061458	174.567589	12.826208	12.175257	-12.306992	-45.000000	-36.443234	45.000000	-45.000000	-2776.617227	76.141790	24.206789	20.999370	2150.988377	48.377290	10.823290	-16.128239	
8.0000	25.204485	29.991406	47.749708	32.485436	770.955665	-44.094092	12.969101	35.906863	25.573786	45.000000	-45.000000	-1884.021866	-2447.910730	20.544820	-156.686186	-359.084674	174.541519	12.834317	12.204834	-12.243275	-45.000000	-36.486101	45.000000	-45.000000	-2776.548495	76.177172	24.213538	21.004098	2150.968277	48.285636	10.883478	-16.141014	
8.0100	25.272712	29.909091	47.548181	30.516322	771.362436	-44.052762	12.972858	35.887621	25.546766	45.000000	-45.000000	-1884.119283	-2447.874641	20.569525	-156.697603	-359.103276	174.519265	12.844040	12.236524	-12.176151	-45.000000	-36.530937	45.000000	-45.000000	-2776.478915	76.212933	24.222404	21.025624	2150.936939	48.183357	10.920434	-16.163299	
8.0200	25.337930	29.828059	47.345118	28.535132	771.818745	-44.003002	12.977292	35.867255	25.517727	45.000000	-45.000000	-1884.203509	-2447.831877	20.579451	-156.719507	-359.133100	174.496929	12.857492	12.269142	-12.107892	-45.000000	-36.582008	45.000000	-45.000000	-2776.412428	76.251553	24.227768	21.065244	2150.917271	48.073818	10.992703	-16.172758	
8.0300	25.396276	29.752989	47.149921	26.543920	772.325740	-43.946199	12.984609	35.843700	25.494781	45.000000	-45.000000	-1884.297251	-2447.800608	20.590856	-156.752254	-359.155084	174.466650	12.870645	12.304943	-12.031984	-45.000000	-36.636347	45.000000	-45.000000	-2776.344494	76.292696	24.231572	21.119141	2150.890723	47.951485	11.040378	-16.191527	
8.0400	25.450769	29.681747	46.958288	24.543380	772.884984	-43.884031	12.993276	35.817098	25.471145	45.000000	-45.000000	-1884.384058	-2447.765624	20.590478	-156.793641	-359.184599	174.422655	12.886483	12.340590	-11.956563	-45.000000	-36.693913	45.000000	-45.000000	-2776.279343	76.338854	24.229612	21.190647	2150.873312	47.818774	11.106534	-16.199774	
8.0500	25.504361	29.609927	46.769836	22.533418	773.498598	-43.818526	12.999576	35.790184	25.466119	45.000000	-45.000000	-1884.488689	-2447.749912	20.597176	-156.846096	-359.201756	174.359534	12.900237	12.381497	-11.876885	-45.000000	-36.754035	45.000000	-45.000000	-2776.207984	76.385215	24.230991	21.283291	2150.844887	47.671983	11.141257	-16.223535	
8.0600	25.567746	29.529292	46.567142	20.512503	774.169203	-43.751963	13.000594	35.767406	25.470143	45.000000	-45.000000	-1884.591164	-2447.730786	20.604181	-156.903804	-359.221328	174.275875	12.913453	12.428015	-11.802551	-45.000000	-36.814445	45.000000	-45.000000	-2776.137658	76.431820	24.242537	21.403401	2150.819438	47.517294	11.201031	-16.243801	
8.0700	25.640864	29.440993	46.352775	18.478885	774.899605	-43.686775	12.999518	35.746248	25.487025	45.000000	-45.000000	-1884.706810	-2447.722079	20.626178	-156.969308	-359.231654	174.169054	12.923510	12.482978	-11.725287	-45.000000	-36.875894	45.000000	-45.000000	-2776.061335	76.474340	24.267396	21.545001	2150.781517	47.353727	11.246789	-16.279056	
8.0800	25.727922	29.345291	46.119693	16.430602	775.692195	-43.625286	12.996415	35.727273	25.504093	45.000000	-45.000000	-1884.822380	-2447.705305	20.654840	-157.038291	-359.248996	174.039420	12.933313	12.545254	-11.652570	-45.000000	-36.933196	45.000000	-45.000000	-2775.988120	76.517704	24.305164	21.710922	2150.740442	47.186654	11.317072	-16.311371	
